<mxfile host="app.diagrams.net" modified="2022-09-19T10:13:04.321Z" agent="5.0 (Windows NT 10.0; Win64; x64) AppleWebKit/537.36 (KHTML, like Gecko) Chrome/105.0.0.0 Safari/537.36" etag="RzMhIFckD_KIW0nlI222" version="20.3.0" type="github">
  <diagram id="LC5RtRG3ClGDkvnIZPoJ" name="第 1 页">
    <mxGraphModel dx="1090" dy="535" grid="1" gridSize="10" guides="1" tooltips="1" connect="1" arrows="1" fold="1" page="1" pageScale="1" pageWidth="827" pageHeight="1169" math="0" shadow="0">
      <root>
        <mxCell id="0" />
        <mxCell id="1" parent="0" />
        <mxCell id="yy4znmxl5hM-p9jyyg8k-4" value="" style="shape=image;verticalLabelPosition=bottom;labelBackgroundColor=default;verticalAlign=top;aspect=fixed;imageAspect=0;image=data:image/png,iVBORw0KGgoAAAANSUhEUgAAAXQAAAE8CAYAAADQaEpSAAAAOXRFWHRTb2Z0d2FyZQBNYXRwbG90bGliIHZlcnNpb24zLjUuMiwgaHR0cHM6Ly9tYXRwbG90bGliLm9yZy8qNh9FAAAACXBIWXMAAAsTAAALEwEAmpwYAAAV3ElEQVR4nO3dfUyV993H8c8FR6weoIUUFxtlEx+2WueeGGikuK44uqbWzVmtLHRWu1RTtdhuBZmABqwaVrMG11pNm2Vg52xr1tpssxudoxZF41qdWLekMzY+bTixg6OV4znX/cdS7ttbED1eBw5f36+/PA/8ri9XzJsfx3MuHdd1XQEA+r24vh4AAOANgg4ARhB0ADCCoAOAEQQdAIwg6ABghK8vD97S0hbx16akDFZr6zkPp4ku5o0u5o0u5o2ua503LS2py/v77Q7d54vv6xGuCfNGF/NGF/NGl1fz9tugAwAuRdABwAiCDgBGEHQAMIKgA4ARBB0AjCDoAGAEQQcAIwg6ABhB0AHACIIOAEb06cW5rsfUJ1/3dL2XSr7p6XoA0NvYoQOAEQQdAIwg6ABgBEEHACMIOgAYQdABwIirCvr+/ftVWFgoSfrggw9UUFCgwsJCzZs3T6dPn5YkbdmyRdOnT9fMmTP1pz/9KXoTAwC61OP70Ddu3Kg33nhDgwYNkiStXLlSZWVluv3227V582Zt3LhRjzzyiGpra/Xaa6/pwoULKigo0KRJk5SQkBD1bwAA8F897tDT09NVU1PTeXvt2rW6/fbbJUmhUEgDBw7UgQMH9JWvfEUJCQlKSkpSenq6Dh8+HL2pAQCX6XGHnp+fr2PHjnXeHjJkiCTpL3/5i+rq6rRp0ya98847SkpK6nyO3+9Xe3t7jwdPSRkcM/87d1paUs9P6gfH8BLzRhfzRteNOG9EH/3/7W9/q+eff14bNmxQamqqEhMTFQgEOh8PBAKXBL47ra3nIjl8VLS0tEV1/bS0pKgfw0vMG13MG13W5+0u/tf8LpfXX39ddXV1qq2t1fDhwyVJ48eP1759+3ThwgW1tbXpww8/1JgxY651aQDAdbimHXooFNLKlSs1dOhQLVq0SJL09a9/XYsXL1ZhYaEKCgrkuq6WLFmigQMHRmVgAEDXrirow4YN05YtWyRJe/bs6fI5M2fO1MyZM72bDABwTfhgEQAYQdABwAiCDgBGEHQAMIKgA4ARBB0AjCDoAGAEQQcAIwg6ABhB0AHACIIOAEYQdAAwgqADgBEEHQCMIOgAYARBBwAjCDoAGEHQAcAIgg4ARhB0ADCCoAOAEQQdAIwg6ABgBEEHACMIOgAYQdABwAiCDgBGEHQAMIKgA4ARBB0AjCDoAGAEQQcAIwg6ABhxVUHfv3+/CgsLJUlHjx7V7NmzVVBQoIqKCoXDYUnSunXrNGPGDD344IM6cOBA9CYGAHSpx6Bv3LhRy5Yt04ULFyRJq1atUlFRkV5++WW5rqv6+no1Nzdrz549euWVV7R27VqtWLEi6oMDAC7VY9DT09NVU1PTebu5uVlZWVmSpNzcXDU2Nmrfvn3KycmR4zi67bbbFAqFdObMmehNDQC4TI9Bz8/Pl8/n67ztuq4cx5Ek+f1+tbW1qb29XYmJiZ3P+fR+AEDv8fX8lEvFxf3vz4BAIKDk5GQlJiYqEAhccn9SUlKPa6WkDJbPF3+tI0RFWlrP8/aHY3iJeaOLeaPrRpz3moM+duxYNTU1KTs7Ww0NDZowYYLS09NVXV2tefPm6dSpUwqHw0pNTe1xrdbWcxENHQ0tLdH9jSItLSnqx/AS80YX80aX9Xm7i/81B724uFhlZWVau3atMjIylJ+fr/j4eGVmZmrWrFkKh8MqLy+/1mUBANfpqoI+bNgwbdmyRZI0YsQI1dXVXfacRYsWadGiRd5OBwC4anywCACMIOgAYARBBwAjCDoAGEHQAcAIgg4ARhB0ADCCoAOAEQQdAIwg6ABgBEEHACMIOgAYQdABwAiCDgBGEHQAMIKgA4ARBB0AjCDoAGAEQQcAIwg6ABhB0AHACIIOAEYQdAAwgqADgBEEHQCMIOgAYARBBwAjCDoAGEHQAcAIgg4ARhB0ADCCoAOAEQQdAIwg6ABghC+SLwoGgyopKdHx48cVFxenyspK+Xw+lZSUyHEcjR49WhUVFYqL4+cFAPSWiIL+5z//WRcvXtTmzZv17rvv6mc/+5mCwaCKioqUnZ2t8vJy1dfXa8qUKV7PCwDoRkRb6BEjRigUCikcDqu9vV0+n0/Nzc3KysqSJOXm5qqxsdHTQQEAVxbRDn3w4ME6fvy4vv3tb6u1tVXr16/X3r175TiOJMnv96utra3HdVJSBsvni49kBM+lpSWZOIaXmDe6mDe6bsR5Iwr6L37xC+Xk5OjJJ5/UyZMn9YMf/EDBYLDz8UAgoOTk5B7XaW09F8nho6KlpecfQNcjLS0p6sfwEvNGF/NGl/V5u4t/RC+5JCcnKynpvwvefPPNunjxosaOHaumpiZJUkNDgzIzMyNZGgAQoYh26HPmzFFpaakKCgoUDAa1ZMkSjRs3TmVlZVq7dq0yMjKUn5/v9awAgCuIKOh+v1/PPvvsZffX1dVd90AAgMjwRnEAMIKgA4ARBB0AjCDoAGAEQQcAIwg6ABhB0AHACIIOAEYQdAAwgqADgBEEHQCMIOgAYARBBwAjCDoAGEHQAcAIgg4ARhB0ADCCoAOAEQQdAIwg6ABgBEEHACMIOgAYQdABwAiCDgBGEHQAMIKgA4ARBB0AjCDoAGAEQQcAIwg6ABhB0AHACIIOAEYQdAAwwhfpF77wwgt6++23FQwGNXv2bGVlZamkpESO42j06NGqqKhQXBw/LwCgt0RU3KamJr333nv61a9+pdraWp06dUqrVq1SUVGRXn75Zbmuq/r6eq9nBQBcQURB37lzp8aMGaPHHntM8+fP1ze+8Q01NzcrKytLkpSbm6vGxkZPBwUAXFlEL7m0trbqxIkTWr9+vY4dO6YFCxbIdV05jiNJ8vv9amtr83RQAMCVRRT0W265RRkZGUpISFBGRoYGDhyoU6dOdT4eCASUnJzc4zopKYPl88VHMoLn0tKSTBzDS8wbXcwbXTfivBEF/Wtf+5p++ctf6uGHH9a//vUvnT9/XhMnTlRTU5Oys7PV0NCgCRMm9LhOa+u5SA4fFS0t0f2NIi0tKerH8BLzRhfzRpf1ebuLf0RBv+uuu7R3717NmDFDruuqvLxcw4YNU1lZmdauXauMjAzl5+dHsjQAIEIRv23xqaeeuuy+urq66xoGABC5iINuzdzVb3u+5ksl3/R8TQDoDp/8AQAjCDoAGEHQAcAIgg4ARhB0ADCCoAOAEQQdAIwg6ABgBEEHACMIOgAYQdABwAiCDgBGEHQAMIKgA4ARBB0AjCDoAGAEQQcAIwg6ABhB0AHACIIOAEYQdAAwgqADgBEEHQCMIOgAYARBBwAjCDoAGEHQAcAIgg4ARhB0ADCCoAOAEQQdAIwg6ABgBEEHACOuK+j//ve/NXnyZH344Yc6evSoZs+erYKCAlVUVCgcDns1IwDgKvgi/cJgMKjy8nLddNNNkqRVq1apqKhI2dnZKi8vV319vaZMmeLZoP3R3NVve7reSyXf9HQ9ALZEvENfs2aNHnzwQQ0ZMkSS1NzcrKysLElSbm6uGhsbvZkQAHBVItqhb926Vampqbrzzju1YcMGSZLrunIcR5Lk9/vV1tbW4zopKYPl88VHMsINKS0tyfTxrhfzRhfzRpcX80YU9Ndee02O42jXrl364IMPVFxcrDNnznQ+HggElJyc3OM6ra3nIjn8Daulpecfkl5JS0vq1eNdL+aNLuaNrmudt7v4RxT0TZs2df65sLBQy5cvV3V1tZqampSdna2GhgZNmDAhkqUBABHy7G2LxcXFqqmp0axZsxQMBpWfn+/V0gCAqxDxu1w+VVtb2/nnurq6610OABAhPlgEAEYQdAAwgqADgBEEHQCMIOgAYARBBwAjCDoAGEHQAcAIgg4ARhB0ADCCoAOAEQQdAIwg6ABgBEEHACMIOgAYQdABwAiCDgBGEHQAMIKgA4ARBB0AjCDoAGAEQQcAIwg6ABhB0AHACIIOAEYQdAAwgqADgBEEHQCMIOgAYARBBwAjCDoAGEHQAcAIX18PgKs3d/Xbnq73Usk3PV0PQN+KKOjBYFClpaU6fvy4Ojo6tGDBAo0aNUolJSVyHEejR49WRUWF4uL4BQAAektEQX/jjTd0yy23qLq6WmfPntV3vvMdfeELX1BRUZGys7NVXl6u+vp6TZkyxet5AQDdiGgLfc899+jxxx+XJLmuq/j4eDU3NysrK0uSlJubq8bGRu+mBAD0KKIdut/vlyS1t7dr8eLFKioq0po1a+Q4TufjbW1tPa6TkjJYPl98JCPAA2lpSdf1eKxh3uhi3ujyYt6I/1H05MmTeuyxx1RQUKCpU6equrq687FAIKDk5OQe12htPRfp4eGBlpbuf+impSVd8fFYw7zRxbzRda3zdhf/iIJ++vRpzZ07V+Xl5Zo4caIkaezYsWpqalJ2drYaGho0YcKESJZGL/L6XTMS75wB+lJEr6GvX79e//nPf/Tcc8+psLBQhYWFKioqUk1NjWbNmqVgMKj8/HyvZwUAXEFEO/Rly5Zp2bJll91fV1d33QMBACLDG8UBwAiCDgBGEHQAMIKgA4ARXJwLNxQucAbL2KEDgBHs0OEpdsBA32GHDgBGEHQAMIKgA4ARvIaOmBaNC4gBVrFDBwAjCDoAGEHQAcAIgg4ARhB0ADCCd7kAxvHp3RsHO3QAMIIdOnAd+I+2EUvYoQOAEQQdAIwg6ABgBEEHACMIOgAYQdABwAiCDgBG8D50IMZwDXhEih06ABhB0AHACIIOAEYQdAAwgn8UBXBNuCBZ7GKHDgBGeLpDD4fDWr58uf72t78pISFBVVVV+uxnP+vlIQAA3fB0h/7HP/5RHR0d+vWvf60nn3xSq1ev9nJ5AMAVeLpD37dvn+68805J0pe//GUdPHjQy+UBGOX16/Lbnpnm6Xr95d8NPN2ht7e3KzExsfN2fHy8Ll686OUhAADd8HSHnpiYqEAg0Hk7HA7L5+v+EGlpSREfy+ufwABsuZ6+/H+90Rsv5vV0h/7Vr35VDQ0NkqT3339fY8aM8XJ5AMAVOK7rul4t9um7XP7+97/LdV09/fTTGjlypFfLAwCuwNOgAwD6Dh8sAgAjCDoAGEHQAcCIfndxrli+vMB3v/vdzvfhDxs2TLNmzdLKlSsVHx+vnJwcLVy4MCbm379/v37605+qtrZWR48eVUlJiRzH0ejRo1VRUaG4uDitW7dOO3bskM/nU2lpqcaPH9/tc3tz3kOHDunRRx/V5z73OUnS7Nmzde+998bEvMFgUKWlpTp+/Lg6Ojq0YMECjRo1KmbPb1fzDh06NGbPbygU0rJly3TkyBE5jqMVK1Zo4MCBMXt+u5r34sWL0T2/bj+zfft2t7i42HVd133vvffc+fPn9/FE//XJJ5+406ZNu+S++++/3z169KgbDofdRx55xG1ubu7z+Tds2ODed9997gMPPOC6rus++uij7u7du13Xdd2ysjL3rbfecg8ePOgWFha64XDYPX78uDt9+vRun9vb827ZssV98cUXL3lOrMz76quvulVVVa7rum5ra6s7efLkmD6/Xc0by+f3D3/4g1tSUuK6ruvu3r3bnT9/fkyf367mjfb57XcvucTq5QUOHz6s8+fPa+7cuXrooYe0d+9edXR0KD09XY7jKCcnR42NjX0+f3p6umpqajpvNzc3KysrS5KUm5vbOWNOTo4cx9Ftt92mUCikM2fOdPnc3p734MGD2rFjh77//e+rtLRU7e3tMTPvPffco8cff1yS5Lqu4uPjY/r8djVvLJ/fvLw8VVZWSpJOnDih5OTkmD6/Xc0b7fPb74Ieq5cXuOmmmzRv3jy9+OKLWrFihZYuXapBgwZ1Pu73+9XW1tbn8+fn51/y6V3XdeU4zhVn/PT+rp7b2/OOHz9eTz31lDZt2qThw4fr5z//eczM6/f7lZiYqPb2di1evFhFRUUxfX67mjeWz68k+Xw+FRcXq7KyUlOnTo3p89vVvNE+v/0u6Nd6eYHeMmLECN1///1yHEcjRoxQUlKSzp492/l4IBBQcnJyzM3/f1+T627GQCCgpKSkLp/b26ZMmaJx48Z1/vnQoUMxNe/Jkyf10EMPadq0aZo6dWrMn9//P2+sn19JWrNmjbZv366ysjJduHDhshlied6cnJyont9+F/RYvbzAq6++2nm54H/+8586f/68Bg8erI8++kiu62rnzp3KzMyMufnHjh2rpqYmSVJDQ0PnjDt37lQ4HNaJEycUDoeVmpra5XN727x583TgwAFJ0q5du3THHXfEzLynT5/W3Llz9eMf/1gzZsyQFNvnt6t5Y/n8/uY3v9ELL7wgSRo0aJAcx9G4ceNi9vx2Ne/ChQujen773SdFY/XyAh0dHVq6dKlOnDghx3H0ox/9SHFxcXr66acVCoWUk5OjJUuWxMT8x44d0xNPPKEtW7boyJEjKisrUzAYVEZGhqqqqhQfH6+amho1NDQoHA5r6dKlyszM7Pa5vTlvc3OzKisrNWDAAN16662qrKxUYmJiTMxbVVWl3/3ud8rIyOi87yc/+Ymqqqpi8vx2NW9RUZGqq6tj8vyeO3dOS5cu1enTp3Xx4kX98Ic/1MiRI2P2729X8w4dOjSqf3/7XdABAF3rdy+5AAC6RtABwAiCDgBGEHQAMIKgA4ARBB03rJKSEm3durWvxwA8Q9ABwAjeh44bhuu6Wr16tXbs2KEhQ4YoFAppxowZOnr0qHbt2qWPP/5YKSkpqqmp0Y4dO7R7924988wzkqR169YpISFBX/ziF1VdXS1Juvnmm/XMM88oNTW1L78toBM7dNwwtm/frkOHDunNN9/Us88+q48++kihUEj/+Mc/tHnzZm3fvl3p6enatm2b7r33Xu3atUuBQECu62rbtm2aNm2annvuOS1fvlxbt27VXXfdpUOHDvX1twV06vurWgG9ZM+ePfrWt76lAQMGKDU1Vbm5uYqPj1dxcbFeeeUVHTlyRO+//77S09Pl9/s1efJkvfXWWxo+fLiGDx+uz3zmM7r77ru1cOFC5eXl6e6779akSZP6+tsCOrFDxw3DcRyFw+HO2z6fT2fPntW8efMUDoeVn5+vvLw8ffoq5Pe+9z29+eab2rZtm6ZPny5JmjNnjmpra5Wenq7q6mo9//zzffK9AF0h6LhhTJw4Ub///e/V0dGhjz/+WO+8844cx1FWVpZmz56tUaNG6d1331UoFJIkZWZm6tSpU2pqalJeXp4k6YEHHlAgENCcOXM0Z84cXnJBTOElF9ww8vLy9Ne//lX33Xefbr31Vo0cOVKffPKJDh8+rKlTp2rAgAH6/Oc/r2PHjnV+zZQpU3T27FklJCRIkp544gmVlJTI5/Np4MCBWrFiRV99O8BleJcL0AXXdRUMBvXwww+rtLRUd9xxR1+PBPSIl1yALrS0tGjSpEn60pe+RMzRb7BDBwAj2KEDgBEEHQCMIOgAYARBBwAjCDoAGEHQAcCI/wEZqvC+EtBtFAAAAABJRU5ErkJggg==;" vertex="1" parent="1">
          <mxGeometry x="40" y="210" width="242.51" height="206" as="geometry" />
        </mxCell>
        <mxCell id="yy4znmxl5hM-p9jyyg8k-5" value="" style="shape=image;verticalLabelPosition=bottom;labelBackgroundColor=default;verticalAlign=top;aspect=fixed;imageAspect=0;image=data:image/png,iVBORw0KGgoAAAANSUhEUgAAAW8AAAE8CAYAAAAPJjBNAAAAOXRFWHRTb2Z0d2FyZQBNYXRwbG90bGliIHZlcnNpb24zLjUuMiwgaHR0cHM6Ly9tYXRwbG90bGliLm9yZy8qNh9FAAAACXBIWXMAAAsTAAALEwEAmpwYAAAUPklEQVR4nO3df0yUhx3H8c8D5y9+3LQL/WNzWrB2lpit6QxqQulibHE/mOvmitLgFrpOO43FiQMcCAa0MtYtHcky09UtAzvXWLT2j2Xr1OXGqMQs6aLMtpE47dQaf0CAk8EBz/7ovM2hd4flvOfbvl9/yR3efXxK3zw5uDvHdV1XAABTkhI9AAAwfsQbAAwi3gBgEPEGAIOINwAYRLwBwCDfnbiTS5f6Yv7cGTNS1N19LY5rJh6b48/aXonNd4q1zePZm5GRfsvrPHfm7fMlJ3rCuLE5/qztldh8p1jbPFF7PRdvAEB0xBsADCLeAGAQ8QYAg4g3ABhEvAHAIOINAAYRbwAwiHgDgEHEGwAMIt4AYNAdeWEqAGOV7DycsPveXbEkYfeNicGZNwAYFNOZ92OPPaa0tDRJ0syZM1VYWKjt27crOTlZubm5Wr9+fVxHAgBuFDXeg4ODcl1Xzc3N4cuWL1+upqYmfepTn9J3vvMd/f3vf1d2dnZchwIA/ivqwyZvvfWWBgYGVFJSotWrV+vYsWMaGhrSrFmz5DiOcnNz1d7efie2AgD+I+qZ99SpU/Xkk0/qG9/4hv7xj3/oqaeekt/vD1+fmpqqd999N+JtzJiRMq4XII/07hFexeb4s7ZX8u7mSLu8ujkSa5snYm/UeGdmZmr27NlyHEeZmZlKT09XT09P+PpgMHhDzG9mPG9RlJGRPq63TfMCNseftb2StzffapeXN9+Ktc3j2fuB3gZt37592rlzpyTp4sWLGhgYUEpKis6ePSvXddXW1qYFCxbEOBsAMBGinnmvWLFClZWVWrVqlRzH0Y4dO5SUlKSysjKNjIwoNzdXn/3sZ+/EVgDAf0SN9+TJk/Xcc8+Nufzll1+OyyAAQHQ8SQcADCLeAGAQ8QYAg4g3ABhEvAHAIOINAAYRbwAwiHgDgEHEGwAMIt4AYBDxBgCDiDcAGES8AcAg4g0ABhFvADCIeAOAQcQbAAwi3gBgEPEGAIOINwAYRLwBwCDiDQAGEW8AMIh4A4BBxBsADCLeAGAQ8QYAg4g3ABhEvAHAIOINAAYRbwAwiHgDgEHEGwAMIt4AYBDxBgCDiDcAGES8AcAg4g0ABhFvADCIeAOAQcQbAAwi3gBgUEzxvnLlih5++GF1dXXpzJkzWrVqlYqKilRTU6PR0dF4bwQA/J+o8Q6FQtq6daumTp0qSXr22WdVWlqql156Sa7r6tChQ3EfCQC4UdR4NzQ0aOXKlbr77rslSZ2dncrJyZEk5eXlqb29Pb4LAQBjRIx3a2ur7rrrLj300EPhy1zXleM4kqTU1FT19fXFdyEAYAxfpCtfeeUVOY6jN954QydPnlR5ebmuXr0avj4YDMrv90e9kxkzUuTzJcc8KiMjPebP9Qo2x1+89hZsejUut+tlkY6lta8Lyd7midgbMd579uwJ/7m4uFi1tbVqbGxUR0eHFi5cqEAgoEWLFkW9k+7uazEPyshI16VLts7m2Rx/1vZ63a2OpcXjbG3zePZGivy4f1WwvLxcTU1NKiwsVCgUUn5+/nhvAgDwAUU88/5fzc3N4T+3tLTEZQwAIDY8SQcADCLeAGAQ8QYAg4g3ABhEvAHAIOINAAYRbwAwiHgDgEHEGwAMIt4AYBDxBgCDiDcAGES8AcAg4g0ABhFvADCIeAOAQcQbAAwi3gBgEPEGAIOINwAYRLwBwCDiDQAGEW8AMIh4A4BBxBsADCLeAGAQ8QYAg4g3ABhEvAHAIOINAAYRbwAwiHgDgEHEGwAMIt4AYBDxBgCDiDcAGORL9ABAkkp2Hk70BMAUzrwBwCDiDQAGEW8AMIh4A4BBxBsADCLeAGBQ1F8VHBkZUVVVlU6fPi3HcbRt2zZNmTJFFRUVchxHc+fOVU1NjZKS+D4AAHdK1HgfOXJEkrR37151dHToJz/5iVzXVWlpqRYuXKitW7fq0KFDeuSRR+I+FgDwvqiny0uXLlVdXZ0k6fz58/L7/ers7FROTo4kKS8vT+3t7fFdCQC4QUyPdfh8PpWXl6uurk4FBQVyXVeO40iSUlNT1dfXF9eRAIAbxfz0+IaGBpWVlenxxx/X4OBg+PJgMCi/3x/x786YkSKfLznmURkZ6TF/rlewGZZE+m9v8evC2uaJ2Bs13gcOHNDFixe1Zs0aTZs2TY7jaP78+ero6NDChQsVCAS0aNGiiLfR3X0t5kEZGem6dMnWmTybYc2t/ttb/Lqwtnk8eyNFPmq8H330UVVWVuqJJ57Q8PCwtmzZojlz5qi6ulo//vGPlZWVpfz8/NiXAwA+sKjxTklJ0fPPPz/m8paWlrgMAgBExy9nA4BBvJ43gDsmUa/bvrtiSULuN5448wYAg4g3ABhEvAHAIOINAAYRbwAwiHgDgEHEGwAMIt4AYBDxBgCDeIYl8BGUqGc6YuJw5g0ABhFvADCIeAOAQcQbAAwi3gBgEPEGAIOINwAYRLwBwCDiDQAGEW8AMIh4A4BBxBsADCLeAGAQ8QYAg4g3ABhEvAHAIOINAAYRbwAwiHgDgEHEGwAMIt4AYBDxBgCDiDcAGES8AcAg4g0ABhFvADCIeAOAQcQbAAwi3gBgEPEGAIOINwAY5It0ZSgU0pYtW3Tu3DkNDQ3p6aef1r333quKigo5jqO5c+eqpqZGSUl8DwCAOylivA8ePKjp06ersbFRPT09+upXv6p58+aptLRUCxcu1NatW3Xo0CE98sgjd2ovAEBRHjZZtmyZnnnmGUmS67pKTk5WZ2encnJyJEl5eXlqb2+P/0oAwA0innmnpqZKkvr7+7VhwwaVlpaqoaFBjuOEr+/r64t6JzNmpMjnS455VEZGesyf6xVsBrzLa1/rE7EnYrwl6cKFC1q3bp2KiopUUFCgxsbG8HXBYFB+vz/qnXR3X4t5UEZGui5div4NwUvYDHibl77Wx/P/XqTIR3zY5PLlyyopKdHmzZu1YsUKSVJ2drY6OjokSYFAQAsWLIh1MwBggkSM989//nP19vbqZz/7mYqLi1VcXKzS0lI1NTWpsLBQoVBI+fn5d2orAOA/Ij5sUlVVpaqqqjGXt7S0xG0QACC6qI9546OlZOfhRE8AEAOeXQMABhFvADCIeAOAQcQbAAwi3gBgEPEGAIOINwAYRLwBwCDiDQAGEW8AMIh4A4BBxBsADCLeAGAQ8QYAg4g3ABhEvAHAIOINAAYRbwAwiHgDgEHEGwAM4g2IAXzoJfKNtXdXLInL7XLmDQAGEW8AMIh4A4BBxBsADOIHlh6UyB+uALCBM28AMIh4A4BBxBsADCLeAGAQ8QYAg4g3ABhEvAHAIOINAAYRbwAwiHgDgEHEGwAMIt4AYBDxBgCDiDcAGES8AcAg4g0ABsUU77/97W8qLi6WJJ05c0arVq1SUVGRampqNDo6GteBAICxosb7hRdeUFVVlQYHByVJzz77rEpLS/XSSy/JdV0dOnQo7iMBADeKGu9Zs2apqakp/HFnZ6dycnIkSXl5eWpvb4/fOgDATUV9D8v8/Hz985//DH/suq4cx5Ekpaamqq+vL+qdzJiRIp8vOeZRGRnpMX+uV1jcDCD+btaGiejFuN+AOCnpvyfrwWBQfr8/6t/p7r4W8+1nZKTr0qXo3xC8xOJmAHfG/7dhPL2IFPlx/7ZJdna2Ojo6JEmBQEALFiwY700AAD6gcce7vLxcTU1NKiwsVCgUUn5+fjx2AQAiiOlhk5kzZ+rll1+WJGVmZqqlpSWuowAAkfEkHQAwiHgDgEHEGwAMIt4AYBDxBgCDiDcAGES8AcAg4g0ABhFvADCIeAOAQeN+VcFEKNl5OCH3u7tiSULuFwCi4cwbAAwi3gBgEPEGAIOINwAYRLwBwCDiDQAGEW8AMIh4A4BBxBsADDLxDMtESdQzOwEgGs68AcAg4g0ABhFvADCIeAOAQcQbAAwi3gBgEPEGAIOINwAYRLwBwCDiDQAGEW8AMIh4A4BBxBsADCLeAGAQ8QYAg4g3ABhEvAHAIOINAAYRbwAwiHgDgEHEGwAMuq13jx8dHVVtba3efvttTZ48WfX19Zo9e/ZEbwMA3MJtnXn/8Y9/1NDQkH77299q06ZN2rlz50TvAgBEcFvx/utf/6qHHnpIkvTAAw/oxIkTEzoKABDZbcW7v79faWlp4Y+Tk5M1PDw8YaMAAJHd1mPeaWlpCgaD4Y9HR0fl8936pjIy0sd1+///+a89t3x8AwHAw8bbxJu5rTPvBx98UIFAQJL05ptv6r777vvAQwAAsXNc13XH+5eu/7bJO++8I9d1tWPHDs2ZMyce+wAAN3Fb8QYAJBZP0gEAg4g3ABhEvAHAoNv6VcGJEgqFtGXLFp07d05DQ0N6+umnde+996qiokKO42ju3LmqqalRUpJ3vseMjIyoqqpKp0+fluM42rZtm6ZMmeLpzZJ05coVfe1rX9Pu3bvl8/k8v/exxx4LP5dg5syZKiws1Pbt25WcnKzc3FytX78+wQvH2rVrlw4fPqxQKKRVq1YpJyfH08e5tbVV+/fvlyQNDg7q5MmTam5u9uxxDoVCqqio0Llz55SUlKS6ujrPfy0PDQ2psrJS7777rtLS0rR161b19PRMzDF2E2jfvn1ufX2967qu293d7T788MPumjVr3KNHj7qu67rV1dXuH/7wh0ROHOP11193KyoqXNd13aNHj7pr1671/OahoSH3u9/9rvvoo4+6p06d8vzef/3rX+7y5ctvuOwrX/mKe+bMGXd0dNT99re/7XZ2diZm3C0cPXrUXbNmjTsyMuL29/e7P/3pTz1/nP9XbW2tu3fvXk8f59dff93dsGGD67qu29bW5q5fv97zx7i5udmtqqpyXdd1u7q63JKSkgk7xgn9FrVs2TI988wz17+JKDk5WZ2dncrJyZEk5eXlqb29PZETx1i6dKnq6uokSefPn5ff7/f85oaGBq1cuVJ33323JHl+71tvvaWBgQGVlJRo9erVOnbsmIaGhjRr1iw5jqPc3FzPbW5ra9N9992ndevWae3atfr85z/v+eN83fHjx3Xq1Cl96Utf8vRxzszM1MjIiEZHR9Xf3y+fz+f5Y3zq1Cnl5eVJkrKysnT8+PEJO8YJjXdqaqrS0tLU39+vDRs2qLS0VK7rynGc8PV9fX2JnHhTPp9P5eXlqqurU0FBgac3t7a26q677gq/Fo0kT++VpKlTp+rJJ5/Uiy++qG3btqmyslLTpk0LX+/Fzd3d3Tpx4oSef/55bdu2TWVlZZ4/ztft2rVL69atG/OyF17bnJKSonPnzukLX/iCqqurVVxc7PljfP/99+vIkSNyXVdvvvmm+vr6lJKSEr7+g2xO6GPeknThwgWtW7dORUVFKigoUGNjY/i6YDAov9+fwHW31tDQoLKyMj3++OMaHBwMX+61za+88oocx9Ebb7yhkydPqry8XFevXg1f77W90vtnWLNnz5bjOMrMzFR6erp6enrC13tx8/Tp05WVlaXJkycrKytLU6ZM0XvvvRe+3oubJam3t1enT5/WokWL1N/ff8PLXnht869+9Svl5uZq06ZNunDhgr75zW8qFAqFr/faXkn6+te/rq6uLhUVFenBBx/UvHnzNDAwEL7+g2xO6Jn35cuXVVJSos2bN2vFihWSpOzsbHV0dEiSAoGAFixYkMiJYxw4cEC7du2SJE2bNk2O42j+/Pme3bxnzx61tLSoublZ999/vxoaGpSXl+fZvZK0b9++8MsMX7x4UQMDA0pJSdHZs2fluq7a2to8t/lzn/uc/vznP8t13fDmxYsXe/o4S9KxY8e0ePFiSe+/ZtGkSZM8e5z9fr/S099/TZCPfexjGh4e9nwvjh8/rsWLF+s3v/mNli1bpnvuuWfCjnFCn2FZX1+v3/3ud8rKygpf9oMf/ED19fUKhULKyspSfX29kpOTEzVxjGvXrqmyslKXL1/W8PCwnnrqKc2ZM0fV1dWe3XxdcXGxamtrlZSU5Om9139Cf/78eTmOo7KyMiUlJWnHjh0aGRlRbm6uNm7cmOiZY/zwhz9UR0eHXNfVxo0bNXPmTE8fZ0n6xS9+IZ/Pp29961uS3n+tIq8e52AwqC1btujSpUsKhUJavXq15s+f7+ljfPXqVX3ve9/TwMCA0tPTtX37dl24cGFCjjFPjwcAg7zzC5EAgJgRbwAwiHgDgEHEGwAMIt4AYBDxxkfCO++8o09/+tP6/e9/n+gpwIQg3vhIaG1tVX5+vvbu3ZvoKcCESPjT44F4Gx4e1sGDB7Vnzx6tXLlSZ8+e1axZs9TR0RF+UscDDzygrq4uNTc368yZM6qtrVVPT4+mTp2q6upqZWdnJ/qfAdyAM2986P3pT3/SJz7xCWVmZmrp0qXau3evQqGQvv/976uxsVEHDhyQz/ff85jy8nJt3rxZ+/fvV11dnaeeZQhcR7zxodfa2qovf/nLkqQvfvGL2r9/v06ePKmPf/zjmjdvniSFX1snGAzqxIkTqqys1PLly7Vp0yZdu3ZN3d3dCdsP3AwPm+BD7cqVKwoEAjpx4oR+/etfy3Vd9fb2KhAIaHR0dMznj46OavLkyXr11VfDl7333nuaPn36HVwNRMeZNz7UDh48qEWLFikQCOjw4cM6cuSI1q5dq7a2NvX29urtt9+WJL322muSpPT0dN1zzz3heP/lL3/RE088kbD9wK3wwlT4UCsoKNDGjRu1ZMmS8GVXrlzRkiVL9OKLL6q+vl5JSUnKzMxUb2+vXnjhBXV1dYV/YDlp0iTV1tbqM5/5TAL/FcBYxBsfSaOjo/rRj36k9evXKyUlRb/85S918eJFVVRUJHoaEBMe88ZHUlJSkqZPn64VK1Zo0qRJ+uQnP6nt27cnehYQM868AcAgfmAJAAYRbwAwiHgDgEHEGwAMIt4AYBDxBgCD/g195in3TpyJ3QAAAABJRU5ErkJggg==;" vertex="1" parent="1">
          <mxGeometry x="282.51" y="210" width="238.08" height="205" as="geometry" />
        </mxCell>
      </root>
    </mxGraphModel>
  </diagram>
</mxfile>
